<svg xmlns:dc="http://purl.org/dc/elements/1.1/" xmlns:cc="http://creativecommons.org/ns#" xmlns:rdf="http://www.w3.org/1999/02/22-rdf-syntax-ns#" xmlns:svg="http://www.w3.org/2000/svg" xmlns="http://www.w3.org/2000/svg" xmlns:sodipodi="http://sodipodi.sourceforge.net/DTD/sodipodi-0.dtd" xmlns:inkscape="http://www.inkscape.org/namespaces/inkscape" version="1.1" x="0px" y="0px" viewBox="0 0 99.999999 124.99999875" xml:space="preserve"><path d="m 60.917707,3.6964316 c 1.301902,0 2.603225,0.4945068 3.593349,1.4861759 L 83.514813,24.186365 c 1.980251,1.983336 1.980251,5.206377 0,7.189714 l -5.809048,5.809048 -7.578592,7.578593 c 2.092922,1.197718 3.524015,3.425885 3.524015,6.004993 0,2.412417 -1.240284,4.539367 -3.114036,5.784933 -0.09415,0.125019 -0.20306,0.248784 -0.349688,0.373804 L 53.586308,73.4653 v 2.773391 h 3.086904 V 96.303568 H 28.89107 16.543451 V 76.238691 h 3.086906 v -4.675574 c -2.952625,-2.501937 -4.630358,-6.102281 -4.630358,-9.990237 0,-2.685606 0.836792,-5.293367 2.36944,-7.488156 l -0.880251,-0.88025 c -0.960025,-0.960027 -1.489189,-2.238126 -1.489189,-3.596365 0,-1.358238 0.529161,-2.633321 1.489189,-3.593349 l 0.859149,-0.859149 c -1.464736,-1.2965 -2.348338,-3.173772 -2.348338,-5.191065 0,-3.829304 3.116231,-6.945534 6.945535,-6.945534 0.280909,0 0.560297,0.02935 0.835032,0.06332 -0.03396,-0.276276 -0.06329,-0.55258 -0.06329,-0.835031 0,-3.829305 3.116231,-6.945536 6.945535,-6.945536 0.280909,0 0.560297,0.02935 0.835032,0.0633 -0.03396,-0.276279 -0.06332,-0.552579 -0.06332,-0.835032 0,-3.829305 3.116229,-6.945535 6.945535,-6.945535 0.280908,0 0.560297,0.02935 0.835031,0.0633 -0.03396,-0.276278 -0.06332,-0.55258 -0.06332,-0.835031 0,-3.829306 3.116231,-6.9455366 6.945536,-6.9455366 2.018836,0 3.894564,0.8851466 5.191064,2.3483386 l 1.223917,-1.22391 5.809049,-5.8090477 c 0.991676,-0.9916659 2.294471,-1.4861739 3.596373,-1.4861739 z m -0.003,3.1230788 c -0.136595,0 -0.272612,0.01589 -0.409979,0.04522 -0.114217,0.0247 -0.235619,0.02156 -0.343662,0.06631 -0.239234,0.09724 -0.462696,0.244178 -0.657171,0.43711 l -3.62651,3.6234946 21.828395,21.828396 3.626507,-3.623496 c 0.777903,-0.779444 0.777903,-2.04821 0,-2.827653 L 62.328517,7.3681594 c -0.192931,-0.192931 -0.417937,-0.339872 -0.657173,-0.437109 -0.108045,-0.04475 -0.229442,-0.04163 -0.343658,-0.06631 -0.137368,-0.02932 -0.276398,-0.04522 -0.412994,-0.04522 z M 45.097408,12.954131 c -2.128422,0 -3.858632,1.73021 -3.858632,3.858631 0,1.185371 0.547154,2.283176 1.446987,3.005511 l 5.417155,-5.417156 c -0.72237,-0.898289 -1.820173,-1.446986 -3.005544,-1.446986 z m 8.597511,0.220062 -1.817777,1.817777 -7.717261,7.717262 -0.883266,0.886279 -6.833996,6.830982 -0.883266,0.886279 -6.833996,6.830983 -0.883265,0.88628 -7.717262,7.717261 -1.453015,1.450001 c -0.779444,0.779444 -0.779444,2.045195 0,2.824639 l 0.67526,0.675259 18.328497,18.328498 c 0.776356,0.777899 2.045194,0.780986 2.824638,0 L 52.808552,57.71425 h -1.537423 c -3.829306,0 -6.945536,-3.116231 -6.945536,-6.945537 0,-3.829305 3.11623,-6.945535 6.945536,-6.945535 h 15.43151 l 8.820587,-8.82059 z m 13.782547,2.866842 c 0.394739,0 0.789523,0.153453 1.091269,0.455198 l 3.086904,3.086906 c 0.603491,0.603489 0.603491,1.576033 0,2.179523 -0.300972,0.300973 -0.696144,0.452183 -1.091268,0.452183 -0.395123,0 -0.790296,-0.151212 -1.091269,-0.452183 l -3.086904,-3.086906 c -0.603491,-0.603489 -0.603491,-1.576032 0,-2.179523 0.301744,-0.301745 0.69653,-0.455198 1.091268,-0.455198 z m -30.097367,4.630358 c -2.128422,0.0015 -3.85863,1.73021 -3.85863,3.85863 0,1.185372 0.547152,2.283177 1.446985,3.005511 l 5.417155,-5.417154 c -0.722335,-0.899833 -1.821682,-1.446987 -3.00551,-1.446987 z m -7.717261,7.717261 c -2.128422,0.0015 -3.858631,1.730211 -3.858631,3.858631 0,1.185372 0.547153,2.283176 1.446986,3.005511 l 5.417155,-5.417154 c -0.722337,-0.899833 -1.821682,-1.446988 -3.00551,-1.446988 z m -7.717263,7.717262 c -2.128421,0.0015 -3.858631,1.73021 -3.858631,3.85863 0,1.185372 0.547154,2.283178 1.446987,3.005511 l 5.417155,-5.417154 C 24.22875,36.65307 23.129404,36.105916 21.945575,36.105916 Z m 44.760118,10.804167 h -15.43453 c -2.128421,0 -3.85863,1.73021 -3.85863,3.85863 0,2.128421 1.730209,3.858631 3.85863,3.858631 h 4.624327 4.365078 6.445118 c 2.128421,0 3.858631,-1.73021 3.858631,-3.858631 -0.0015,-1.841338 -1.29949,-3.379388 -3.026614,-3.762165 l -0.639085,-0.07234 c -0.06328,-0.0092 -0.128106,-0.02413 -0.192932,-0.02413 z m -33.184224,1.543452 c 3.404855,0 6.173809,2.768953 6.173809,6.173809 0,3.404856 -2.767411,6.17381 -6.173809,6.17381 -3.404856,0 -6.17381,-2.768954 -6.17381,-6.17381 0,-3.404856 2.768954,-6.173809 6.17381,-6.173809 z m 0,3.086905 c -1.702428,0 -3.086906,1.384476 -3.086906,3.086904 0,1.702428 1.384478,3.086906 3.086906,3.086906 1.702428,0 3.086903,-1.384478 3.086903,-3.086906 0,-1.702428 -1.384475,-3.086904 -3.086903,-3.086904 z m -13.930303,4.769028 c -0.978549,1.575864 -1.504263,3.395835 -1.504263,5.263412 0,3.171794 1.462517,6.09109 4.015388,8.012688 l 0.614969,0.464241 v 6.185868 h 17.864256 9.917887 v -4.193246 l 0.545634,-0.461228 c 0.06945,-0.06019 0.143062,-0.11673 0.27734,-0.217047 L 65.023531,57.71425 H 57.176643 L 42.685675,72.208231 c -0.992439,0.990897 -2.295233,1.486177 -3.596364,1.486176 -1.302673,0 -2.605468,-0.495279 -3.596366,-1.486176 z M 53.586308,79.322582 H 40.581516 c -4.743031,0 -8.603542,3.860512 -8.603542,8.603541 v 5.28753 h 21.608334 z m -20.893884,0 H 19.630357 v 13.891071 h 9.260713 v -5.28753 c 0,-3.404856 1.47074,-6.464317 3.801354,-8.603541 z m 7.774538,1.543452 c 2.978864,0 5.402083,2.42322 5.402083,5.402083 0,2.978863 -2.423219,5.402084 -5.402083,5.402084 -2.978862,0 -5.402082,-2.423221 -5.402082,-5.402084 0,-2.978863 2.424764,-5.402083 5.402082,-5.402083 z m 0,3.086906 c -1.276434,0 -2.315178,1.038743 -2.315178,2.315177 0,1.276435 1.038744,2.315179 2.315178,2.315179 1.276436,0 2.315179,-1.038744 2.315179,-2.315179 0,-1.276434 -1.038743,-2.315177 -2.315179,-2.315177 z" style="" stroke-width="1"/></svg>